<?xml version="1.0" encoding="UTF-8"?><svg id="Layer_2" xmlns="http://www.w3.org/2000/svg" viewBox="0 0 79 24.01"><defs><style>.cls-1{fill:#e52926;}</style></defs><g id="Layer_1-2"><path class="cls-1" d="M7.82,10.3c0,.56.22,1.07.57,1.47.47-.42,1.08-.69,1.76-.7,1.48-.02,2.71,1.17,2.73,2.65l.09,5.97c.02,1.48-1.17,2.71-2.65,2.73s-2.71-1.17-2.73-2.65l-.08-5.61c-.59-.4-1.09-.92-1.45-1.54-.11.38-.16.79-.16,1.2l.09,5.97c.04,2.36,1.99,4.26,4.35,4.22s4.26-1.99,4.22-4.35l-.09-5.97c-.04-2.36-1.99-4.26-4.35-4.22-.85.01-1.64.28-2.31.72v.11Z"/><path class="cls-1" d="M10.18,14.54c.84-.01,1.63-.27,2.29-.71v-.11c0-.56-.22-1.07-.56-1.47-.47.41-1.07.67-1.74.68-1.48.02-2.71-1.17-2.73-2.65l-.09-5.97c-.02-1.48,1.17-2.71,2.65-2.73s2.71,1.17,2.73,2.65l.08,5.63c.59.4,1.08.93,1.44,1.54.11-.39.17-.8.16-1.23l-.09-5.97C14.28,1.86,12.32-.03,9.96,0s-4.26,1.99-4.22,4.35l.09,5.97c.04,2.36,1.99,4.26,4.35,4.22Z"/><circle class="cls-1" cx="2.22" cy="17.92" r="2.22"/><circle class="cls-1" cx="2.22" cy="7.27" r="2.22"/><path class="cls-1" d="M22.12,11.34c-2.87,0-4.88-2-4.88-4.71s2.02-4.62,4.88-4.62c2.57,0,4.65,1.69,4.81,4.2h-3.27c-.19-.66-.74-1.14-1.54-1.14-.95,0-1.56.68-1.56,1.61s.61,1.61,1.56,1.61c.82,0,1.38-.53,1.55-1.21h3.26c-.16,2.55-2.21,4.27-4.81,4.27Z"/><path class="cls-1" d="M32.11,9.59h-1.79l-.23,1.58h-3.33l1.98-9h4.95l1.98,9h-3.33l-.23-1.58ZM30.67,7.21h1.09l-.31-2.16h-.47l-.31,2.16Z"/><path class="cls-1" d="M36.15,11.17V2.18h5.11l.77,3.81h.41l.77-3.81h5.11v9h-3.29v-5.03h-.41l-.85,4.47h-3.07l-.85-4.47h-.41v5.03h-3.29Z"/><path class="cls-1" d="M52.45,9.11v2.06h-3.29V2.18h4.37c2.22,0,3.62,1.31,3.62,3.45s-1.4,3.48-3.61,3.48h-1.09ZM52.45,4.73v1.82h.58c.61,0,.9-.43.9-.92s-.29-.9-.91-.9h-.56Z"/><path class="cls-1" d="M61.66,11.34c-2.39,0-3.95-1.48-3.95-3.83V2.18h3.29v5.48c0,.46.25.79.66.79s.66-.34.66-.79V2.18h3.29v5.34c0,2.35-1.55,3.83-3.95,3.83Z"/><path class="cls-1" d="M66.37,11.17v-2.58h3.38c.38,0,.5-.2.5-.37,0-.18-.12-.38-.49-.38h-.53c-1.86,0-3.05-1.15-3.05-2.83s1.19-2.83,3.05-2.83h4.09v2.58h-3.19c-.29,0-.46.12-.46.32,0,.19.17.32.46.32h.46c1.9,0,3.07,1.24,3.07,2.88s-1.18,2.89-3.07,2.89h-4.22Z"/><path class="cls-1" d="M22.12,21.34c-2.87,0-4.88-2-4.88-4.71s2.02-4.62,4.88-4.62c2.57,0,4.65,1.69,4.81,4.2h-3.27c-.19-.66-.74-1.14-1.54-1.14-.95,0-1.56.68-1.56,1.61s.61,1.61,1.56,1.61c.82,0,1.38-.53,1.55-1.21h3.26c-.16,2.55-2.21,4.27-4.81,4.27Z"/><path class="cls-1" d="M32.3,21.34c-2.87,0-4.88-2-4.88-4.71s2.02-4.62,4.88-4.62,4.89,1.96,4.89,4.62-2.02,4.71-4.89,4.71ZM32.3,18.28c.96,0,1.57-.7,1.57-1.61s-.61-1.61-1.57-1.61-1.56.68-1.56,1.61.61,1.61,1.56,1.61Z"/><path class="cls-1" d="M37.86,21.17v-9h3.35l1.82,3.84h.41v-3.84h3v9h-3.47l-1.7-3.84h-.41v3.84h-3Z"/><path class="cls-1" d="M47.28,21.17v-9h3.35l1.82,3.84h.41v-3.84h3v9h-3.47l-1.7-3.84h-.41v3.84h-3Z"/><path class="cls-1" d="M62.71,21.17h-6.01v-9h5.97v2.58h-2.69v.76h2.55v2.18h-2.55v.9h2.72v2.58Z"/><path class="cls-1" d="M68.19,21.34c-2.87,0-4.88-2-4.88-4.71s2.02-4.62,4.88-4.62c2.57,0,4.65,1.69,4.81,4.2h-3.27c-.19-.66-.74-1.14-1.54-1.14-.95,0-1.56.68-1.56,1.61s.61,1.61,1.56,1.61c.82,0,1.38-.53,1.55-1.21h3.26c-.16,2.55-2.21,4.27-4.81,4.27Z"/><path class="cls-1" d="M74.46,21.17v-6.42h-1.27v-2.58h5.82v2.58h-1.26v6.42h-3.29Z"/></g></svg>