<?xml version="1.0" encoding="UTF-8"?><svg id="Layer_2" xmlns="http://www.w3.org/2000/svg" viewBox="0 0 24.01 14.56"><defs><style>.cls-1{fill:#f8f8f0;}</style></defs><g id="Layer_1-2"><path class="cls-1" d="M10.3,7.82c.56,0,1.07.22,1.47.57-.42.47-.69,1.08-.7,1.76-.02,1.48,1.17,2.71,2.65,2.73l5.97.09c1.48.02,2.71-1.17,2.73-2.65s-1.17-2.71-2.65-2.73l-5.61-.08c-.4-.59-.92-1.09-1.54-1.45.38-.11.79-.16,1.2-.16l5.97.09c2.36.04,4.26,1.99,4.22,4.35s-1.99,4.26-4.35,4.22l-5.97-.09c-2.36-.04-4.26-1.99-4.22-4.35.01-.85.28-1.64.72-2.31h.11Z"/><path class="cls-1" d="M14.54,10.18c-.01.84-.27,1.63-.71,2.29h-.11c-.56,0-1.07-.22-1.47-.56.41-.47.67-1.07.68-1.74.02-1.48-1.17-2.71-2.65-2.73l-5.97-.09c-1.48-.02-2.71,1.17-2.73,2.65s1.17,2.71,2.65,2.73l5.63.08c.4.59.93,1.08,1.54,1.44-.39.11-.8.17-1.23.16l-5.97-.09C1.86,14.28-.03,12.32,0,9.96s1.99-4.26,4.35-4.22l5.97.09c2.36.04,4.26,1.99,4.22,4.35Z"/><circle class="cls-1" cx="17.92" cy="2.22" r="2.22"/><circle class="cls-1" cx="7.27" cy="2.22" r="2.22"/></g></svg>